<svg width="28" height="29" viewBox="0 0 28 29" fill="none" xmlns="http://www.w3.org/2000/svg">
<path d="M15.4392 0.35182C16.4608 0.3479 17.4824 0.358167 18.5037 0.382619L18.7752 0.392418C19.0888 0.403618 19.3982 0.417617 19.772 0.434416C21.2615 0.504412 22.2779 0.739601 23.1696 1.08538C24.0936 1.44096 24.8719 1.92254 25.6503 2.7009C26.362 3.40031 26.9128 4.24635 27.2644 5.18017C27.6102 6.07193 27.8454 7.08967 27.9154 8.5792C27.9322 8.95158 27.9462 9.26236 27.9574 9.57595L27.9658 9.84753C27.9906 10.8684 28.0014 11.8895 27.998 12.9106L27.9994 13.9549V15.7888C28.0028 16.8104 27.9921 17.832 27.9672 18.8533L27.9588 19.1249C27.9476 19.4384 27.9336 19.7478 27.9168 20.1216C27.8468 21.6111 27.6088 22.6275 27.2644 23.5192C26.9139 24.4541 26.363 25.3008 25.6503 25.9999C24.9503 26.7115 24.1038 27.2623 23.1696 27.614C22.2779 27.9598 21.2615 28.195 19.772 28.265C19.3982 28.2818 19.0888 28.2958 18.7752 28.307L18.5037 28.3154C17.4824 28.3403 16.4608 28.351 15.4392 28.3476L14.3949 28.349H12.5624C11.5408 28.3524 10.5192 28.3417 9.49792 28.3168L9.22633 28.3084C8.89401 28.2963 8.56175 28.2823 8.22959 28.2664C6.74006 28.1964 5.72371 27.9584 4.83056 27.614C3.89637 27.2631 3.05018 26.7122 2.35129 25.9999C1.63879 25.3003 1.08747 24.4538 0.73577 23.5192C0.389988 22.6275 0.1548 21.6111 0.0848034 20.1216C0.0692122 19.7894 0.0552128 19.4572 0.0428056 19.1249L0.0358061 18.8533C0.00999644 17.832 -0.00167088 16.8104 0.00080776 15.7888V12.9106C-0.00309939 11.8895 0.00716784 10.8684 0.0316063 9.84753L0.0414057 9.57595C0.0526052 9.26236 0.0666044 8.95158 0.0834035 8.5792C0.1534 7.08827 0.388588 6.07333 0.73437 5.18017C1.08627 4.24589 1.63867 3.40009 2.35269 2.7023C3.0511 1.98939 3.89675 1.43757 4.83056 1.08538C5.72371 0.739601 6.73866 0.504412 8.22959 0.434416L9.22633 0.392418L9.49792 0.385419C10.5187 0.359622 11.5398 0.347955 12.561 0.35042L15.4392 0.35182ZM14.0001 7.35146C13.0726 7.33834 12.1518 7.50969 11.2912 7.85553C10.4305 8.20137 9.64722 8.71482 8.98673 9.36603C8.32624 10.0172 7.80177 10.7932 7.44379 11.6489C7.08581 12.5046 6.90146 13.4229 6.90146 14.3504C6.90146 15.2779 7.08581 16.1962 7.44379 17.0519C7.80177 17.9076 8.32624 18.6836 8.98673 19.3348C9.64722 19.986 10.4305 20.4994 11.2912 20.8453C12.1518 21.1911 13.0726 21.3625 14.0001 21.3493C15.8565 21.3493 17.6369 20.6119 18.9496 19.2992C20.2623 17.9865 20.9997 16.2061 20.9997 14.3497C20.9997 12.4933 20.2623 10.7129 18.9496 9.40021C17.6369 8.08752 15.8565 7.35146 14.0001 7.35146ZM14.0001 10.1513C14.558 10.141 15.1123 10.242 15.6307 10.4484C16.1491 10.6548 16.6212 10.9624 17.0194 11.3532C17.4176 11.7441 17.7339 12.2104 17.9499 12.7249C18.1659 13.2394 18.2772 13.7917 18.2772 14.3497C18.2773 14.9077 18.1662 15.4601 17.9505 15.9746C17.7347 16.4892 17.4185 16.9556 17.0204 17.3466C16.6224 17.7376 16.1504 18.0453 15.632 18.2519C15.1137 18.4584 14.5594 18.5596 14.0015 18.5495C12.8876 18.5495 11.8194 18.107 11.0318 17.3194C10.2442 16.5318 9.80171 15.4636 9.80171 14.3497C9.80171 13.2359 10.2442 12.1676 11.0318 11.38C11.8194 10.5924 12.8876 10.1499 14.0015 10.1499L14.0001 10.1513ZM21.3497 5.25157C20.8981 5.26964 20.471 5.46177 20.1578 5.7877C19.8447 6.11363 19.6698 6.54809 19.6698 7.00008C19.6698 7.45207 19.8447 7.88652 20.1578 8.21246C20.471 8.53839 20.8981 8.73051 21.3497 8.74859C21.8138 8.74859 22.2589 8.56422 22.5871 8.23605C22.9153 7.90788 23.0996 7.46278 23.0996 6.99868C23.0996 6.53457 22.9153 6.08948 22.5871 5.76131C22.2589 5.43313 21.8138 5.24877 21.3497 5.24877V5.25157Z" fill="#2E93AA"/>
</svg>
