<svg width="28" height="29" viewBox="0 0 28 29" fill="none" xmlns="http://www.w3.org/2000/svg">
<path fill-rule="evenodd" clip-rule="evenodd" d="M28 4.30377C28 2.12022 26.2299 0.350098 24.0463 0.350098H3.95367C1.77013 0.350098 0 2.12022 0 4.30377V24.3964C0 26.58 1.77013 28.3501 3.95367 28.3501H24.0463C26.2299 28.3501 28 26.58 28 24.3964V4.30377ZM23.1966 12.5622C21.39 12.5824 19.7067 12.0362 18.2287 11.0247V18.1253C18.2287 21.2811 16.0685 23.992 13.0139 24.7C8.8465 25.6508 5.31863 22.6366 4.87368 19.0358C4.40839 15.4348 6.70495 12.279 10.2249 11.5709C10.9127 11.4293 11.9472 11.4293 12.4809 11.5507V15.3539C12.3167 15.3135 12.1629 15.273 12.0011 15.2528C10.6255 15.01 9.29313 15.6978 8.74692 16.952C8.20074 18.2064 8.56632 19.6628 9.67893 20.5126C10.6094 21.2408 11.6419 21.3419 12.6938 20.8564C13.7458 20.3912 14.3112 19.5415 14.4325 18.3884C14.4527 18.2267 14.4516 18.0445 14.4516 17.8625V4.20731C14.4516 3.82297 14.4546 3.83974 14.839 3.83974H17.8532C18.0758 3.83974 18.1567 3.87176 18.1769 4.13489C18.3387 6.48154 20.1203 8.48004 22.4063 8.78352C22.6491 8.82395 22.9092 8.83998 23.1966 8.86017V12.5622Z" fill="#2E93AA"/>
</svg>
