<svg width="28" height="28" viewBox="0 0 28 28" fill="none" xmlns="http://www.w3.org/2000/svg">
<path d="M7.35422 23.0916L8.36782 23.6838C10.0771 24.6809 12.0212 25.2042 14 25.2C16.2152 25.2 18.3806 24.5431 20.2224 23.3124C22.0642 22.0818 23.4998 20.3326 24.3475 18.286C25.1952 16.2395 25.417 13.9876 24.9848 11.815C24.5526 9.64239 23.4859 7.64675 21.9196 6.0804C20.3533 4.51405 18.3576 3.44736 16.185 3.0152C14.0124 2.58305 11.7605 2.80485 9.71396 3.65255C7.66743 4.50025 5.91823 5.93578 4.68756 7.77761C3.45689 9.61944 2.80002 11.7848 2.80002 14C2.79593 15.9794 3.3198 17.9241 4.31762 19.6336L4.90842 20.6472L3.99422 24.0086L7.35422 23.0916ZM0.00562163 28L1.89842 21.0448C0.650963 18.9069 -0.00431427 16.4752 2.13761e-05 14C2.13761e-05 6.2678 6.26782 0 14 0C21.7322 0 28 6.2678 28 14C28 21.7322 21.7322 28 14 28C11.5259 28.0042 9.09523 27.3495 6.95802 26.103L0.00562163 28ZM8.94741 7.43119C9.13595 7.41813 9.32401 7.41626 9.51161 7.42559C9.58721 7.43119 9.66281 7.43866 9.73841 7.44799C9.96101 7.47319 10.206 7.60899 10.2886 7.79659C10.7058 8.74393 11.1109 9.69593 11.5038 10.6526C11.5906 10.8654 11.5388 11.1384 11.3736 11.4044C11.2896 11.5402 11.158 11.7306 11.0054 11.9252C10.8472 12.1282 10.507 12.5006 10.507 12.5006C10.507 12.5006 10.3684 12.6658 10.4216 12.8716C10.4412 12.95 10.5056 13.0634 10.5644 13.1586L10.647 13.2916C11.0054 13.8894 11.487 14.4956 12.075 15.0668C12.243 15.2292 12.4068 15.3958 12.5832 15.5512C13.2384 16.1294 13.9804 16.6012 14.7812 16.9512L14.7882 16.954C14.9072 17.0058 14.9674 17.0338 15.141 17.108C15.2278 17.1444 15.3169 17.1752 15.4084 17.2004C15.442 17.2097 15.4761 17.2149 15.5106 17.2158C15.5904 17.2188 15.6698 17.2023 15.7418 17.1677C15.8138 17.133 15.8762 17.0813 15.9236 17.017C16.9358 15.7906 17.0296 15.7108 17.0366 15.7108V15.7136C17.1069 15.6478 17.1906 15.5978 17.2819 15.5671C17.3732 15.5365 17.47 15.5258 17.5658 15.5358C17.6517 15.5395 17.7343 15.5582 17.8136 15.5918C18.557 15.932 19.7736 16.4626 19.7736 16.4626L20.5884 16.828C20.7256 16.8938 20.8502 17.0492 20.8544 17.199C20.86 17.2928 20.8684 17.444 20.8362 17.7212C20.7914 18.0838 20.6822 18.5192 20.573 18.7474C20.4973 18.9026 20.3982 19.0452 20.279 19.1702C20.1376 19.3184 19.983 19.4533 19.817 19.5734C19.7013 19.6593 19.6429 19.7013 19.642 19.6994C19.4679 19.8099 19.289 19.9127 19.1058 20.0074C18.7452 20.1984 18.3472 20.3083 17.9396 20.3294C17.6806 20.3434 17.4216 20.363 17.1612 20.349C17.15 20.349 16.366 20.2272 16.366 20.2272C14.3756 19.7035 12.5348 18.7227 10.99 17.3628C10.6736 17.0842 10.3796 16.7846 10.08 16.4864C8.83681 15.2474 7.89462 13.9104 7.32202 12.6476C7.03152 12.0277 6.87414 11.3538 6.86002 10.6694C6.85475 9.81924 7.1331 8.9916 7.65102 8.31739C7.75322 8.18579 7.84982 8.04859 8.01642 7.89039C8.19282 7.72239 8.30621 7.63279 8.42801 7.57119C8.59047 7.49139 8.76686 7.44385 8.94741 7.43119Z" fill="#2E93AA"/>
</svg>
